<?xml version="1.0" encoding="UTF-8"?>
<!-- Generator: Adobe Illustrator 19.2.1, SVG Export Plug-In . SVG Version: 6.00 Build 0)  -->
<svg version="1.1" id="layer" xmlns="http://www.w3.org/2000/svg" xmlns:xlink="http://www.w3.org/1999/xlink" x="0px" y="0px" viewBox="0 0 652 652" style="enable-background:new 0 0 652 652;" xml:space="preserve">
<style type="text/css">
	.st0{fill:#358CCB;}
</style>
<g>
	<path class="st0" d="M155.1,321.3c0,0-1.6,20.8,20.2,20.8h35.6v0c1.8,0,3.3,1.5,3.3,3.3c0,1.8-1.5,3.3-3.3,3.3l-0.1,0h-36.1   c0,0-26.8,1.4-26.8-27.4c0-28.8,26.8-27.4,26.8-27.4h36.2c1.8,0,3.3,1.5,3.3,3.3c0,1.8-1.5,3.3-3.3,3.3h-35.6   C153.4,300.5,155.1,321.3,155.1,321.3 M416.6,302.4c0.9-0.7,3.6-2,5.9-2h8.3h30.5c1.8,0,3.3-1.5,3.3-3.3c0-1.8-1.5-3.3-3.3-3.3h-29   c-4.3,0-6.8,0-10.8,0c-5.8,0-9.8,2.3-12.7,5.7c-2.8,3.3-3.5,7.5-3.5,9.7h7.4C413,305.5,415.3,303.5,416.6,302.4 M457.2,340.1   c-0.9,0.7-3.6,2-5.9,2c-3.7,0-8.3,0-8.3,0h-34.1v0c-1.8,0-3.3,1.5-3.3,3.3c0,1.8,1.5,3.3,3.3,3.3l0.3,0h32.3c4.3,0,6.8,0,10.8,0   c5.8,0,9.8-2.3,12.7-5.7c2.8-3.3,3.5-7.5,3.5-9.7l-7.4,0C460.9,337,458.6,339.1,457.2,340.1 M452.2,318c-4,0-6.5,0-10.8,0H441v0   h-18.5c-2.3,0-4.9-1.3-5.9-2c-1.4-1-3.7-3.1-3.7-6.8h-7.4c0,2.2,0.7,6.4,3.5,9.7c2.9,3.3,6.9,5.7,12.7,5.7c4,0,6.5,0,10.8,0h0.4v0   h18.5c2.3,0,4.9,1.3,5.9,2c1.4,1,3.7,3.1,3.7,6.8h7.4c0-2.2-0.7-6.4-3.5-9.7C462,320.3,457.9,318,452.2,318 M617.2,342.1h-44.9   v-44.9c0-1.8-1.5-3.3-3.3-3.3c-1.8,0-3.3,1.5-3.3,3.3h0v51.4h51.5v0c1.8,0,3.3-1.5,3.3-3.3C620.5,343.5,619.1,342.1,617.2,342.1    M388.7,293.9c-1,0-1.8,0.4-2.4,1.1l0,0l-34.9,34.9l-35.2-35.2l0,0c-0.6-0.5-1.3-0.8-2.1-0.8c-1.8,0-3.3,1.5-3.3,3.3v51.4h6.6   v-43.5l31.8,31.8l0.4,0.3l0.3,0.2l0.3,0.1l0.2,0.1c1,0.4,1.8,0.2,2.4,0l0.1,0l0.5-0.2l0.1-0.1l0.5-0.4v0l31.7-31.7v43.5h6.6v-51.4   C392,295.4,390.5,293.9,388.7,293.9 M299.4,321.3c0,28.8-26.8,27.4-26.8,27.4h-22.4c0,0-26.8,1.4-26.8-27.4   c0-28.8,26.8-27.4,26.8-27.4h22.4C272.6,293.9,299.4,292.5,299.4,321.3 M272.1,300.5h-21.3c-21.8,0-20.2,20.8-20.2,20.8   s-1.6,20.8,20.2,20.8h21.3c21.8,0,20.2-20.8,20.2-20.8S293.9,300.5,272.1,300.5 M553.8,321.3c0,28.8-26.8,27.4-26.8,27.4h-22.4   c0,0-26.8,1.4-26.8-27.4c0-28.8,26.8-27.4,26.8-27.4H527C527,293.9,553.8,292.5,553.8,321.3 M526.4,300.5h-21.3   c-21.8,0-20.2,20.8-20.2,20.8s-1.6,20.8,20.2,20.8h21.3c21.8,0,20.2-20.8,20.2-20.8S548.2,300.5,526.4,300.5 M121.5,301.9   c0-4.4-3.6-8-8-8H82.7c-4.4,0-8,3.6-8,8v38.8c0,4.4,3.6,8,8,8h30.8c4.4,0,8-3.6,8-8V301.9z M59.3,293.9H28.5c-4.4,0-8,3.6-8,8v0   c0,1.9,0.7,3.6,1.8,5l0,0.1l30.8,38.8l0.1,0c1.5,1.7,3.6,2.9,6.1,2.9h0c4.4,0,8-3.6,8-8v-38.8C67.3,297.5,63.7,293.9,59.3,293.9"/>
</g>
</svg>